# Blender v2.77 (sub 0) OBJ File: ''
# www.blender.org
mtllib GRASS.mtl
o sphere
v 0.001522 -0.176173 0.011189
v -0.167473 -0.100447 0.141080
v 0.001522 -0.176173 0.270971
v 0.481755 0.840560 0.012787
v 0.313816 0.915812 0.141080
v 0.481755 0.840560 0.269372
v 0.992955 1.614227 0.019306
v 0.931902 1.834177 0.145894
v 0.982939 1.589500 0.266170
v 1.653548 2.197090 0.154581
vt 0.4000 0.5000
vt 0.4500 0.5000
vt 0.4000 0.5500
vt 0.4500 0.5500
vt 0.5000 0.5000
vt 0.5000 0.5500
vt 0.4000 0.6000
vt 0.4500 0.6000
vt 0.5000 0.6000
vt 0.4500 0.6500
vn 0.4094 -0.1920 -0.8919
vn -0.9036 0.4284 -0.0002
vn 0.3741 -0.2048 -0.9045
vn -0.8717 0.4901 0.0007
vn 0.4093 -0.1925 0.8919
vn 0.3744 -0.2102 0.9031
vn 0.3075 -0.2337 -0.9224
vn -0.6157 0.7877 0.0213
vn 0.3440 -0.2738 0.8982
vn 0.8053 0.5927 0.0167
usemtl blinn2SG
s 1
f 1/1/1 2/2/2 4/3/3
f 4/3/3 2/2/2 5/4/4
f 2/2/2 3/5/5 5/4/4
f 5/4/4 3/5/5 6/6/6
f 4/3/3 5/4/4 7/7/7
f 7/7/7 5/4/4 8/8/8
f 5/4/4 6/6/6 8/8/8
f 8/8/8 6/6/6 9/9/9
f 8/8/8 9/9/9 10/10/10
f 10/10/10 7/7/7 8/8/8
f 9/9/9 7/7/7 10/10/10
f 7/7/7 9/9/9 4/3/3
f 6/6/6 4/3/3 9/9/9
f 4/3/3 6/6/6 1/1/1
f 1/1/1 6/6/6 3/5/5
o sphere.001
v 0.030317 -0.176173 0.160426
v 0.025339 -0.100447 -0.052662
v -0.179296 -0.176173 0.006967
v -0.254656 0.840560 0.546970
v -0.258968 0.915812 0.335680
v -0.461688 0.840560 0.395401
v -0.559436 1.813868 0.955223
v -0.561765 1.887712 0.749279
v -0.758791 1.813868 0.809275
v -0.987056 2.559314 1.357982
vt 0.4000 0.5000
vt 0.4500 0.5000
vt 0.4000 0.5500
vt 0.4500 0.5500
vt 0.5000 0.5000
vt 0.5000 0.5500
vt 0.4000 0.6000
vt 0.4500 0.6000
vt 0.5000 0.6000
vt 0.4500 0.6500
vn 0.4779 -0.1920 0.8572
vn 0.5339 0.4284 -0.7290
vn 0.4794 -0.1978 0.8550
vn 0.5276 0.4470 -0.7224
vn -0.9614 -0.1925 -0.1966
vn -0.9595 -0.2013 -0.1973
vn 0.5113 -0.1651 0.8434
vn 0.4700 0.5967 -0.6504
vn -0.9620 -0.1544 -0.2251
vn -0.3807 0.7485 0.5430
usemtl blinn2SG.001
s 1
f 11/11/11 12/12/12 14/13/13
f 14/13/13 12/12/12 15/14/14
f 12/12/12 13/15/15 15/14/14
f 15/14/14 13/15/15 16/16/16
f 14/13/13 15/14/14 17/17/17
f 17/17/17 15/14/14 18/18/18
f 15/14/14 16/16/16 18/18/18
f 18/18/18 16/16/16 19/19/19
f 18/18/18 19/19/19 20/20/20
f 20/20/20 17/17/17 18/18/18
f 19/19/19 17/17/17 20/20/20
f 17/17/17 19/19/19 14/13/13
f 16/16/16 14/13/13 19/19/19
f 14/13/13 16/16/16 11/11/11
f 11/11/11 16/16/16 13/15/15
o sphere.002
v -0.145431 -0.176173 0.024534
v -0.086852 -0.100447 0.229471
v 0.096118 -0.176173 0.120142
v 0.032796 0.840560 -0.421404
v 0.090278 0.915812 -0.218037
v 0.271372 0.840560 -0.326973
v 0.165936 1.160236 -0.670040
v 0.275481 1.543273 -0.729606
v 0.419557 1.359767 -0.680272
v 0.470736 1.366088 -1.293446
vt 0.4000 0.5000
vt 0.4500 0.5000
vt 0.4000 0.5500
vt 0.4500 0.5500
vt 0.5000 0.5000
vt 0.5000 0.5500
vt 0.4000 0.6000
vt 0.4500 0.6000
vt 0.5000 0.6000
vt 0.4500 0.6500
vn -0.6787 -0.1920 -0.7089
vn -0.3327 0.4284 0.8401
vn -0.7122 -0.1466 -0.6864
vn -0.3096 0.5544 0.7725
vn 0.9799 -0.1925 -0.0523
vn 0.9843 -0.1764 -0.0082
vn -0.6123 -0.4846 -0.6247
vn -0.2421 0.9576 0.1564
vn 0.9065 0.0257 0.4213
vn 0.2890 -0.0020 -0.9573
usemtl blinn2SG.002
s 1
f 21/21/21 22/22/22 24/23/23
f 24/23/23 22/22/22 25/24/24
f 22/22/22 23/25/25 25/24/24
f 25/24/24 23/25/25 26/26/26
f 24/23/23 25/24/24 27/27/27
f 27/27/27 25/24/24 28/28/28
f 25/24/24 26/26/26 28/28/28
f 28/28/28 26/26/26 29/29/29
f 28/28/28 29/29/29 30/30/30
f 30/30/30 27/27/27 28/28/28
f 29/29/29 27/27/27 30/30/30
f 27/27/27 29/29/29 24/23/23
f 26/26/26 24/23/23 29/29/29
f 24/23/23 26/26/26 21/21/21
f 21/21/21 26/26/26 23/25/25
